<?xml version="1.0" encoding="utf-8"?>
<svg version="1.1" id="Layer_1" xmlns="http://www.w3.org/2000/svg" xmlns:xlink="http://www.w3.org/1999/xlink" x="0px" y="0px"
	 width="16px" height="16px" viewBox="0 0 16 16" enable-background="new 0 0 16 16" xml:space="preserve">
<g>
	<path fill="#F93535" d="M6.5,4.8c0.1-0.1,0.1-0.2,0-0.2L5,3.1C5,3.1,4.9,3.1,4.8,3.1L0.1,7.9C0,8,0,8,0.1,8.1l4.8,4.8
		c0.1,0.1,0.2,0.1,0.2,0l1.5-1.5c0.1-0.1,0.1-0.2,0-0.2L3.4,8.1C3.4,8,3.4,8,3.4,7.9L6.5,4.8L6.5,4.8z"/>
	<path fill="#F93535" d="M11.2,3.1c-0.1-0.1-0.2-0.1-0.2,0L6.2,7.9C6.2,7.9,6.2,8,6.2,8.1l1.5,1.5c0.1,0.1,0.2,0.1,0.2,0L11,6.5
		c0.1-0.1,0.2-0.1,0.2,0l1.4,1.4c0.1,0.1,0.1,0.2,0,0.2l-3.1,3.1c-0.1,0.1-0.1,0.2,0,0.2l1.5,1.5c0.1,0.1,0.2,0.1,0.2,0l4.8-4.8
		C16,8,16,8,15.9,7.9L11.2,3.1L11.2,3.1z"/>
</g>
</svg>
